<svg width="145" height="48" viewBox="0 0 145 48" fill="none" xmlns="http://www.w3.org/2000/svg">
<path d="M0 0.570312C7.28826 0.570312 13.1966 6.47862 13.1966 13.7669V46.8828C5.90831 46.8828 0 40.9745 0 33.6862V0.570312Z" fill="white"/>
<path d="M37.3487 11.6505C37.3487 17.7698 32.3879 22.7306 26.2685 22.7306C20.1491 22.7306 15.1884 17.7698 15.1884 11.6505C15.1884 5.53106 20.1491 0.570312 26.2685 0.570312C32.3879 0.570312 37.3487 5.53106 37.3487 11.6505Z" fill="white"/>
<path d="M37.3486 35.8028C37.3486 41.9222 32.3879 46.8829 26.2685 46.8829C20.1491 46.8829 15.1884 41.9222 15.1884 35.8028C15.1884 29.6834 20.1491 24.7227 26.2685 24.7227C32.3879 24.7227 37.3486 29.6834 37.3486 35.8028Z" fill="white"/>
<path d="M123.85 19.7231H119.641V0H123.85V5.59313L123.732 9.30225L126.47 5.94637L131.798 0H136.744L129.885 7.80094L137.038 19.7231H132.181L126.912 10.8624L123.85 14.1889V19.7231Z" fill="white"/>
<path d="M103.568 19.7231H99.0938L106.483 0H111.899L119.288 19.7231H114.666L113.106 15.3369H105.158L103.568 19.7231ZM107.954 7.536L106.424 11.775H111.811L110.309 7.536L109.132 3.35587L107.954 7.536Z" fill="white"/>
<path d="M99.1942 19.7231H84.7109V0H99.1942V3.73856H88.9205V7.88925H97.5163V11.6278H88.9205V15.9846H99.1942V19.7231Z" fill="white"/>
<path d="M70.5924 19.7231H66.3828V0H75.5379C79.8063 0 82.9267 1.97231 82.9267 6.15244C82.9267 9.6555 80.5423 11.4512 77.3336 11.8339C78.8938 12.246 79.718 13.2174 80.5717 14.601L83.6921 19.7231H78.8349L75.5084 14.13C74.7431 12.8053 73.8599 12.3343 72.1231 12.3343H70.5924V19.7231ZM75.3907 3.73856H70.5924V8.949H75.3907C77.2158 8.949 78.5111 8.21306 78.5111 6.3585C78.5111 4.44506 77.2158 3.73856 75.3907 3.73856Z" fill="white"/>
<path d="M57.5047 19.7231H47.9375V0H57.6224C61.9792 0 63.716 2.20781 63.716 5.00438C63.716 8.36025 60.7134 9.44944 57.6519 9.59663C62.6562 9.77325 64.4225 11.775 64.4225 14.5716C64.4225 18.2512 61.6848 19.7231 57.5047 19.7231ZM56.5038 3.73856H52.1471V7.97756H56.5627C58.2112 7.97756 59.2709 7.44769 59.2709 5.85806C59.2709 4.29787 58.1818 3.73856 56.5038 3.73856ZM56.9454 11.3629H52.1471V15.9846H56.8865C59.1238 15.9846 60.0952 15.2486 60.0952 13.659C60.0952 12.0694 58.9471 11.3629 56.9454 11.3629Z" fill="white"/>
<path d="M134.154 45.7231H129.944V38.9819L122.438 26H127.736L130.18 30.9455L132.122 35.4789L134.065 30.9749L136.626 26H141.69L134.154 38.9819V45.7231Z" fill="white"/>
<path d="M117.206 45.7231H112.997V29.7386H107.109V26H123.094V29.7386H117.206V45.7231Z" fill="white"/>
<path d="M94.8893 45.7231H90.6797V26H99.8347C104.103 26 107.224 27.9723 107.224 32.1524C107.224 35.6555 104.839 37.4512 101.63 37.8339C103.191 38.246 104.015 39.2174 104.869 40.601L107.989 45.7231H103.132L99.8053 40.13C99.0399 38.8053 98.1568 38.3343 96.42 38.3343H94.8893V45.7231ZM99.6876 29.7386H94.8893V34.949H99.6876C101.513 34.949 102.808 34.2131 102.808 32.3585C102.808 30.4451 101.513 29.7386 99.6876 29.7386Z" fill="white"/>
<path d="M87.5143 45.7231H83.3047V26H87.5143V45.7231Z" fill="white"/>
<path d="M67.5455 45.7231H63.3359V26H67.5455V33.8893H75.9646V26H80.1742V45.7231H75.9646V37.6278H67.5455V45.7231Z" fill="white"/>
<path d="M56.8627 45.7231H52.6531V29.7386H46.7656V26H62.7502V29.7386H56.8627V45.7231Z" fill="white"/>
</svg>
